<!--?xml version="1.0" standalone="no"?-->

<svg xmlns="http://www.w3.org/2000/svg" width="250.000000pt" height="300.000000pt" viewBox="0 0 250.000000 300.000000" preserveAspectRatio="xMidYMid meet">
<g transform="translate(0.000000,300.000000) scale(0.100000,-0.100000)" fill="#fff" stroke="none">
<path style="position: relative;" class="node" id="node1" d="M575 2971 c-41 -19 -61 -38 -104 -100 -33 -46 -33 -150 -2 -236 19
-53 21 -72 15 -161 -4 -67 -3 -113 5 -136 17 -50 275 -299 352 -338 20 -11 62
-49 93 -85 50 -59 60 -78 96 -193 49 -158 68 -237 76 -331 l7 -73 -70 -67
c-39 -36 -75 -75 -81 -86 -12 -23 -32 -188 -32 -260 0 -34 -4 -45 -15 -45 -22
0 -141 122 -200 205 l-50 70 0 101 c0 86 -3 105 -19 123 -24 26 -43 26 -141 1
-43 -11 -92 -20 -109 -20 -35 0 -217 -62 -253 -86 -20 -12 -24 -22 -21 -52 3
-32 7 -39 38 -49 19 -7 67 -12 105 -12 86 -1 164 -27 176 -58 6 -17 17 -23 38
-23 44 0 145 -115 227 -258 37 -65 87 -148 112 -186 25 -40 40 -72 35 -77 -11
-11 -193 49 -272 89 -48 24 -56 33 -75 83 -35 87 -64 129 -91 129 -39 0 -122
-53 -157 -99 -22 -29 -53 -54 -89 -73 -63 -31 -103 -75 -145 -160 l-28 -58 20
-27 c34 -45 70 -42 154 13 71 46 76 47 165 52 72 4 98 1 123 -12 17 -9 51 -15
74 -15 38 2 56 -6 148 -68 218 -146 404 -232 473 -219 18 3 45 19 60 34 28 29
57 99 57 138 0 12 18 62 41 110 36 79 70 180 146 434 29 96 43 183 36 220 -5
25 24 152 54 240 18 56 53 257 53 311 0 44 2 45 80 24 98 -26 147 -22 215 19
91 55 209 151 281 229 35 38 64 73 64 77 0 4 23 22 50 40 28 18 57 45 66 61
17 33 34 44 88 53 29 6 36 10 27 19 -15 15 -14 27 3 27 8 0 18 5 22 12 5 8 -8
10 -50 5 -62 -6 -66 4 -10 28 35 14 46 35 19 35 -18 0 -20 17 -2 23 6 2 9 7 5
11 -3 4 -24 -2 -45 -13 -51 -28 -125 -61 -135 -61 -4 0 -8 6 -8 14 0 16 -26
46 -40 46 -5 0 -6 -16 -3 -35 3 -21 -1 -52 -10 -78 -9 -23 -17 -55 -19 -72 -2
-24 -17 -40 -83 -87 -44 -32 -114 -75 -155 -95 -40 -21 -91 -55 -111 -75 l-37
-38 -56 25 c-31 14 -67 25 -79 25 -13 0 -36 14 -53 31 -39 43 -88 62 -134 54
-34 -6 -40 -3 -73 34 -20 23 -37 46 -37 52 0 15 31 38 50 39 9 0 26 7 38 16
21 15 22 18 8 39 -8 12 -12 32 -9 44 3 13 -1 29 -12 41 -15 16 -15 22 -5 35
10 13 2 25 -56 80 -105 99 -183 114 -280 54 -66 -40 -82 -132 -39 -214 14 -26
24 -49 23 -50 -11 -10 -147 38 -195 68 -32 21 -91 54 -131 73 -44 22 -77 45
-82 58 -5 11 -27 61 -49 110 l-39 90 24 31 c19 26 34 33 70 38 52 5 108 45
139 98 25 42 26 139 3 184 -49 92 -166 131 -263 86z"></path>
</g>
<g transform="translate(0.000000,300.000000) scale(0.100000,-0.100000)" fill="#9F9F9F" stroke="none">


</g>
</svg>