<?xml version="1.0" encoding="UTF-8" standalone="no"?>
<!-- Created with Inkscape (http://www.inkscape.org/) -->

<svg
   xmlns:dc="http://purl.org/dc/elements/1.1/"
   xmlns:cc="http://creativecommons.org/ns#"
   xmlns:rdf="http://www.w3.org/1999/02/22-rdf-syntax-ns#"
   xmlns:svg="http://www.w3.org/2000/svg"
   xmlns="http://www.w3.org/2000/svg"
   xmlns:sodipodi="http://sodipodi.sourceforge.net/DTD/sodipodi-0.dtd"
   xmlns:inkscape="http://www.inkscape.org/namespaces/inkscape"
   width="123.87103mm"
   height="142.4503mm"
   viewBox="0 0 123.87103 142.4503"
   version="1.1"
   id="svg4617"
   inkscape:version="0.92.1 r15371"
   sodipodi:docname="court-icon-inclined.svg">
  <defs
     id="defs4611" />
  <sodipodi:namedview
     id="base"
     pagecolor="#ffffff"
     bordercolor="#666666"
     borderopacity="1.0"
     inkscape:pageopacity="0.0"
     inkscape:pageshadow="2"
     inkscape:zoom="0.35"
     inkscape:cx="275.02722"
     inkscape:cy="334.48763"
     inkscape:document-units="mm"
     inkscape:current-layer="layer1"
     showgrid="false"
     inkscape:window-width="1360"
     inkscape:window-height="705"
     inkscape:window-x="-8"
     inkscape:window-y="-8"
     inkscape:window-maximized="1" />
  <metadata
     id="metadata4614">
    <rdf:RDF>
      <cc:Work
         rdf:about="">
        <dc:format>image/svg+xml</dc:format>
        <dc:type
           rdf:resource="http://purl.org/dc/dcmitype/StillImage" />
        <dc:title></dc:title>
      </cc:Work>
    </rdf:RDF>
  </metadata>
  <g
     inkscape:label="Layer 1"
     inkscape:groupmode="layer"
     id="layer1"
     transform="translate(-33.065715,-94.882876)">
    <path
       style="fill:#ffffff;stroke-width:0.64267176"
       d="m 65.189468,220.39778 c -17.143273,-9.39096 -31.382058,-17.40752 -31.641746,-17.8146 -0.25969,-0.40707 -0.476593,-1.23358 -0.482005,-1.83667 -0.01202,-1.33303 56.227481,-104.666423 57.354511,-105.382187 0.4386,-0.278545 1.37586,-0.494896 2.08279,-0.480795 0.70694,0.01457 15.456262,7.779222 32.776262,17.255802 29.66157,16.22921 31.5005,17.33784 31.65577,19.08398 0.12515,1.40705 -6.6903,14.40042 -28.27756,53.91028 -27.48039,50.29568 -28.50762,52.06119 -30.370432,52.19755 -1.46324,0.10712 -9.44168,-3.9748 -33.09759,-16.93336 z m 44.325162,-12.85144 c 11.94197,-21.92235 12.41918,-22.93451 11.22637,-23.81117 -0.68518,-0.50357 -4.24039,-2.52365 -7.90046,-4.48904 l -6.65471,-3.57347 -1.70004,1.25686 c -4.911032,3.63083 -10.321492,4.40229 -15.231992,2.17187 -5.34566,-2.42808 -9.23804,-9.3417 -8.33593,-14.80625 l 0.37932,-2.29773 -7.71521,-4.17738 c -4.24335,-2.29755 -7.90736,-4.12677 -8.14223,-4.06494 -0.23488,0.0618 -6.00963,10.32853 -12.832795,22.81486 l -12.405753,22.70242 1.408045,1.11037 c 0.774424,0.61073 1.552645,1.11653 1.72938,1.12404 0.176728,0.007 1.159465,-1.5044 2.183848,-3.35974 5.831089,-10.56125 14.930073,-16.15474 25.772375,-15.84329 16.69332,0.47954 28.785302,13.53297 27.8296,30.0424 -0.25142,4.34303 -0.7046,5.96925 -2.99159,10.73547 -1.48239,3.08941 -2.61635,5.67747 -2.51987,5.75127 0.53288,0.40762 2.79645,1.57286 3.08779,1.58951 0.18796,0.0109 5.954192,-10.28347 12.813852,-22.87606 z m -18.749272,12.77353 c 2.03812,-4.27178 2.37663,-5.62104 2.37835,-9.47941 0.002,-4.61173 -0.62213,-8.04727 -1.45627,-8.0155 -0.69974,0.0266 -10.63127,18.63372 -10.18432,19.08066 0.91816,0.91818 5.29008,3.35663 6.05086,3.3749 0.45926,0.0109 1.90438,-2.22127 3.21138,-4.96065 z m -13.24995,-4.58751 1.72188,-3.12298 -2.8486,-0.39044 c -3.89014,-0.53321 -7.4426,-2.46338 -9.69012,-5.26496 l -1.87982,-2.34325 -1.761886,3.23717 -1.761891,3.23717 2.750588,1.56415 c 6.352299,3.61232 11.126149,6.20485 11.426649,6.20547 0.17671,3.5e-4 1.09618,-1.40469 2.0432,-3.12233 z m -16.330819,-16.8211 c 2.614664,-4.74996 4.905539,-8.9978 5.090839,-9.43963 0.50614,-1.20691 -0.79597,-0.97819 -4.55481,0.80002 -5.26062,2.48867 -9.248094,6.94654 -12.475883,13.9476 -0.252687,0.54809 5.744093,3.73294 6.584618,3.49706 0.330715,-0.0929 2.74057,-4.05508 5.355236,-8.80505 z m 18.502829,7.15832 c 0.37428,-0.027 1.21396,-0.43924 1.86596,-0.91599 1.07915,-0.78909 0.63638,-1.1637 -4.93742,-4.17736 -3.36757,-1.8208 -6.30398,-3.31055 -6.52533,-3.31055 -0.72952,0 -0.41937,2.60182 0.5287,4.43519 1.39719,2.70185 4.77828,4.60301 7.42357,4.17417 0.53021,-0.086 1.27024,-0.17835 1.64452,-0.20546 z m 6.06755,-9.0242 c 0,-2.56258 -3.30651,-6.28774 -6.0355,-6.79971 -2.36006,-0.44274 -6.13341,0.34764 -6.27618,1.31463 -0.0698,0.4729 11.08974,7.24273 12.151,7.37128 0.0884,0.0109 0.16068,-0.8381 0.16068,-1.8862 z m 52.332892,-41.77935 12.04025,-22.1555 -1.40952,-1.14136 c -0.77525,-0.62774 -1.5944,-1.14067 -1.82033,-1.13983 -0.22595,8.4e-4 -1.27428,1.66375 -2.32963,3.69536 -3.78867,7.29342 -9.38384,12.01653 -16.96203,14.31835 -16.45056,4.9967 -33.275662,-5.45792 -36.196602,-22.49151 -1.03438,-6.032 -0.0621,-11.6632 3.08408,-17.86159 1.30639,-2.5738 2.26044,-4.77937 2.12011,-4.90128 -0.62431,-0.54235 -3.27193,-1.76436 -3.40698,-1.57249 -0.0823,0.11695 -5.71481,10.46476 -12.51655,22.99503 -12.17188,22.42315 -12.34579,22.79801 -11.03247,23.77886 0.73389,0.54811 4.34669,2.58407 8.02846,4.52436 l 6.6941,3.5278 1.49923,-1.40843 c 5.08599,-4.77806 14.209262,-4.38493 19.375482,0.83489 2.99592,3.027 3.91178,5.34887 3.93537,9.97692 l 0.0217,4.24821 7.71206,4.22884 c 5.86324,3.21505 7.88118,4.04544 8.41756,3.46385 0.38803,-0.42075 6.12362,-10.73495 12.74574,-22.92048 z m -39.842632,18.63671 c 0.90669,-0.34473 1.64852,-0.86077 1.64852,-1.14679 0,-0.80838 -3.5774,-2.72515 -5.08615,-2.72515 -0.74424,0 -1.85642,-0.60119 -2.47153,-1.33596 -1.01298,-1.21004 -4.06454,-3.16275 -4.94251,-3.16275 -0.70649,0 -0.32892,2.68159 0.64196,4.55905 1.87664,3.62899 6.32347,5.28915 10.20971,3.8116 z m 4.861882,-8.92665 c 0,-3.32997 -4.261942,-7.15606 -7.971252,-7.15606 -1.71729,0 -4.8822,1.2269 -4.8822,1.89262 0,0.78113 3.75676,2.60608 5.36478,2.60608 0.95492,0 2.0444,0.58917 2.62665,1.42045 0.94015,1.34225 3.324582,3.00561 4.380012,3.05549 0.2651,0.0127 0.48201,-0.80583 0.48201,-1.81858 z m 26.23441,-23.26677 c 4.30739,-2.15245 7.71022,-5.63736 10.13365,-10.37814 0.85227,-1.66723 1.54958,-3.18066 1.54958,-3.3632 0,-0.31759 -6.07689,-3.56689 -6.67084,-3.56689 -0.22708,0 -9.71938,16.87482 -10.5742,18.79815 -0.44554,1.00249 1.75228,0.41372 5.56181,-1.48992 z m -13.12444,-0.15066 c 1.42717,-1.04357 1.26902,-1.17615 -6.20125,-5.19917 -5.52751,-2.97675 -5.62338,-3.00204 -5.62338,-1.4831 0,1.99084 2.47892,5.66547 4.518,6.69725 2.0749,1.04991 5.86092,1.04215 7.30663,-0.0146 z m 4.24217,-8.19217 c 0,-2.14813 -1.81557,-5.01829 -3.835,-6.06257 -2.33486,-1.2074 -6.44971,-1.26377 -8.02765,-0.10986 -1.07622,0.78696 -0.63812,1.16224 4.85787,4.16133 3.32243,1.813 6.25766,3.30359 6.52276,3.31241 0.2651,0.009 0.48202,-0.57671 0.48202,-1.30122 z m -16.28261,-13.39542 c 2.59298,-4.734 4.71452,-8.82767 4.71452,-9.097 0,-0.55428 -5.37374,-3.82521 -6.28435,-3.82521 -0.98464,0 -4.596582,7.80458 -5.256952,11.35903 -0.8349,4.49394 0.75271,14.27 1.80308,11.10283 0.17015,-0.51278 2.430742,-4.80564 5.023702,-9.53965 z m 23.01078,4.60762 c 1.61439,-2.88849 1.64042,-3.07689 0.53694,-3.8856 -1.77311,-1.29942 -13.13372,-7.35062 -13.34648,-7.10897 -0.6108,0.69374 -2.96424,5.84152 -2.76274,6.04305 0.13372,0.13371 1.37815,0.42339 2.76558,0.64387 3.60002,0.57214 7.02447,2.48794 9.10259,5.09241 0.98779,1.23798 1.84356,2.25089 1.90171,2.25089 0.0581,2e-5 0.86922,-1.36604 1.8024,-3.03565 z"
       id="path4639"
       inkscape:connector-curvature="0" />
  </g>
</svg>
