<svg xmlns="http://www.w3.org/2000/svg" xmlns:xlink="http://www.w3.org/1999/xlink" version="1.1" x="0px" y="0px" viewBox="0 0 100 100" style="enable-background:new 0 0 100 100;" xml:space="preserve"> <g fill="#fff" > <path d="M94,22H6c-0.552,0-1,0.448-1,1v16v22v16c0,0.553,0.448,1,1,1h88c0.553,0,1-0.447,1-1V61V39V23C95,22.448,94.553,22,94,22z   M93,60H83c-5.514,0-10-4.486-10-10c0-5.514,4.486-10,10-10h10V60z M83,38c-6.617,0-12,5.383-12,12c0,6.617,5.383,12,12,12h10v9h-3  c-11.58,0-21-9.42-21-21c0-11.58,9.42-21,21-21h3v9H83z M49,59.949c-5.046-0.504-9-4.772-9-9.949s3.954-9.446,9-9.949V59.949z   M51,40.051c5.047,0.503,9,4.772,9,9.949s-3.953,9.445-9,9.949V40.051z M7,40h10c5.514,0,10,4.486,10,10c0,5.514-4.486,10-10,10H7  V40z M7,62h10c6.617,0,12-5.383,12-12c0-6.617-5.383-12-12-12H7v-9h3c11.58,0,21,9.42,21,21c0,11.58-9.42,21-21,21H7V62z M7,73h3  c12.682,0,23-10.318,23-23c0-12.682-10.318-23-23-23H7v-3h42v14.051C42.851,38.562,38,43.721,38,50s4.851,11.438,11,11.949V76H7V73z   M51,76V61.949c6.149-0.511,11-5.67,11-11.949s-4.851-11.438-11-11.949V24h42v3h-3c-12.682,0-23,10.318-23,23  c0,12.682,10.318,23,23,23h3v3H51z"></path><path d="M87,54c0.732,0,1.409-0.212,2-0.557V55c0,0.553,0.447,1,1,1s1-0.447,1-1V45c0-0.552-0.447-1-1-1s-1,0.448-1,1v1.557  C88.409,46.212,87.732,46,87,46c-2.205,0-4,1.794-4,4C83,52.205,84.795,54,87,54z M87,48c1.104,0,2,0.897,2,2c0,1.104-0.896,2-2,2  s-2-0.896-2-2C85,48.897,85.896,48,87,48z"></path><path d="M13,46c-0.732,0-1.409,0.212-2,0.557V45c0-0.552-0.448-1-1-1s-1,0.448-1,1v10c0,0.553,0.448,1,1,1s1-0.447,1-1v-1.557  C11.591,53.788,12.268,54,13,54c2.206,0,4-1.795,4-4C17,47.794,15.206,46,13,46z M13,52c-1.103,0-2-0.896-2-2c0-1.103,0.897-2,2-2  s2,0.897,2,2C15,51.104,14.103,52,13,52z"></path></g></svg>