<?xml version="1.0" encoding="UTF-8" standalone="no"?>
<!-- Created with Inkscape (http://www.inkscape.org/) -->

<svg
   xmlns:dc="http://purl.org/dc/elements/1.1/"
   xmlns:cc="http://creativecommons.org/ns#"
   xmlns:rdf="http://www.w3.org/1999/02/22-rdf-syntax-ns#"
   xmlns:svg="http://www.w3.org/2000/svg"
   xmlns="http://www.w3.org/2000/svg"
   xmlns:sodipodi="http://sodipodi.sourceforge.net/DTD/sodipodi-0.dtd"
   xmlns:inkscape="http://www.inkscape.org/namespaces/inkscape"
   width="210mm"
   height="297mm"
   viewBox="0 0 210 297"
   version="1.1"
   id="svg4596"
   inkscape:version="0.92.1 r15371"
   sodipodi:docname="court-icon.svg">
  <defs
     id="defs4590" />
  <sodipodi:namedview
     id="base"
     pagecolor="#ffffff"
     bordercolor="#666666"
     borderopacity="1.0"
     inkscape:pageopacity="0.0"
     inkscape:pageshadow="2"
     inkscape:zoom="0.35"
     inkscape:cx="400"
     inkscape:cy="560"
     inkscape:document-units="mm"
     inkscape:current-layer="layer1"
     showgrid="false"
     inkscape:window-width="1360"
     inkscape:window-height="705"
     inkscape:window-x="-8"
     inkscape:window-y="-8"
     inkscape:window-maximized="1" />
  <metadata
     id="metadata4593">
    <rdf:RDF>
      <cc:Work
         rdf:about="">
        <dc:format>image/svg+xml</dc:format>
        <dc:type
           rdf:resource="http://purl.org/dc/dcmitype/StillImage" />
        <dc:title></dc:title>
      </cc:Work>
    </rdf:RDF>
  </metadata>
  <g
     inkscape:label="Layer 1"
     inkscape:groupmode="layer"
     id="layer1">
    <path
       style="fill:#ffffff;stroke-width:0.81768847"
       d="m 151.06889,195.53165 c -1.59628,1.59629 -2.72562,1.63538 -47.24398,1.63538 -39.955959,0 -45.833849,-0.15776 -47.425929,-1.2729 l -1.81732,-1.2729 v -76.28077 c 0,-72.861109 0.067,-76.341439 1.49534,-77.634029 1.35392,-1.22528 5.82187,-1.35327 47.243989,-1.35327 40.0827,0 45.97372,0.15765 47.56596,1.2729 l 1.81732,1.2729 v 75.998659 c 0,74.9084 -0.0235,76.02212 -1.63538,77.63403 z M 133.07313,121.9397 h -11.45426 l -1.31405,3.28411 c -1.89892,4.7459 -7.64012,9.49255 -12.90716,10.67126 -8.349379,1.86851 -16.861869,-2.57832 -20.536999,-10.72829 l -1.47472,-3.27035 -11.51812,0.22605 -11.51812,0.22606 -0.2136,33.3208 -0.21359,33.32081 h 2.75966 2.75967 l 0.42353,-7.56362 c 0.50709,-9.05591 2.6308,-15.23003 7.24775,-21.07091 15.43076,-19.52137 45.390609,-18.15499 58.859769,2.68442 3.5037,5.4209 5.64837,13.3949 5.64837,21.00097 v 4.94914 h 2.45306 2.45307 V 155.46492 121.9397 Z m 9.00119,-74.409649 c -2.45081,0 -2.45306,0.004 -2.45306,4.86588 0,10.70706 -3.43087,19.69612 -10.14044,26.56847 -8.95516,9.17244 -22.67527,13.10522 -34.623159,9.9245 -16.80089,-4.47267 -27.19299,-18.15664 -27.19299,-35.80683 v -5.55202 h -2.87108 -2.87108 l 0.21359,33.3208 0.2136,33.320799 11.44764,0.21993 11.44763,0.21993 2.41284,-4.63492 c 7.18232,-13.796889 26.712849,-12.879069 32.718809,1.53758 l 1.27744,3.06633 h 11.43666 11.43667 V 81.055271 47.530051 Z M 130.22323,172.65165 c -1.31143,-3.71698 -6.61129,-11.46291 -7.84307,-11.46291 -0.42294,0 -0.74805,6.04144 -0.74805,13.9007 v 13.9007 h 4.90613 4.90613 v -6.4387 c 0,-3.62048 -0.53449,-7.95362 -1.22114,-9.89979 z M 126.53824,47.530051 h -4.90613 v 14.05368 14.05369 l 2.55577,-2.40163 c 1.40566,-1.32089 3.61313,-4.60938 4.90548,-7.30775 2.00123,-4.17849 2.34982,-5.90664 2.35037,-11.65206 l 6.4e-4,-6.74593 z M 113.55508,179.99557 c -0.3948,0 -2.0388,0.55194 -3.65333,1.22654 -1.61453,0.67459 -4.3729,1.22653 -6.12972,1.22653 -1.75681,0 -4.758569,-0.55194 -6.670569,-1.22653 -1.912,-0.6746 -3.61408,-1.22654 -3.78241,-1.22654 -0.16832,0 -0.30604,2.02378 -0.30604,4.49729 v 4.49728 h 10.629949 10.62995 v -4.49728 c 0,-2.47351 -0.32302,-4.49729 -0.71783,-4.49729 z M 103.64296,47.530051 H 93.013011 v 4.49728 c 0,2.47351 0.13905,4.49729 0.30899,4.49729 0.16994,0 1.62996,-0.55194 3.24449,-1.22653 1.61453,-0.6746 4.798939,-1.22654 7.076469,-1.22654 2.27754,0 5.46195,0.55194 7.07648,1.22654 1.61453,0.67459 3.07455,1.22653 3.24449,1.22653 0.16994,0 0.30898,-2.02378 0.30898,-4.49729 v -4.49728 z m 1.7473,75.167429 c -1.09845,0.58788 -2.34428,0.58441 -4.05308,-0.0113 -1.356929,-0.47303 -3.692989,-0.74251 -5.191239,-0.59886 l -2.72408,0.2612 2.98456,3.06633 c 2.50264,2.57121 3.53246,3.06633 6.377689,3.06633 3.92889,0 7.56356,-1.65506 9.41727,-4.28819 1.27835,-1.81586 1.2479,-1.84835 -1.96334,-2.09438 -1.79401,-0.13745 -3.97551,0.13203 -4.84778,0.59885 z m 4.28026,-12.9597 c -1.52791,-1.20185 -3.34728,-1.69879 -6.2196,-1.69879 -3.615769,0 -4.386449,0.33547 -7.044499,3.06633 l -2.98456,3.06633 2.42815,0.27606 c 1.33549,0.15183 3.76611,-0.1655 5.401379,-0.70519 2.20554,-0.72789 3.41208,-0.74639 4.67287,-0.0716 0.9348,0.50028 3.02463,0.90961 4.64407,0.90961 2.65146,0 2.86073,-0.15642 2.10315,-1.57197 -0.46271,-0.86457 -1.81314,-2.33641 -3.00096,-3.27075 z m -6.45525,58.81015 h -9.422269 l 1.294,1.97489 c 1.68709,2.57482 7.258319,4.80198 10.326439,4.1281 2.46345,-0.54106 7.2241,-4.07195 7.2241,-5.35798 0,-0.40976 -4.24002,-0.74501 -9.42227,-0.74501 z m 7.54729,-11.28864 c -4.58041,-4.30307 -10.38684,-4.03912 -14.905739,0.6776 l -2.33208,2.43416 h 9.556399 c 5.25602,0 9.5564,-0.30382 9.5564,-0.67516 0,-0.37133 -0.84374,-1.4678 -1.87498,-2.4366 z m -7.1196,-81.110149 c -4.947009,0 -8.994569,0.33525 -8.994569,0.74501 0,1.2797 4.75522,4.81572 7.197559,5.35215 1.28183,0.28154 3.40641,0.10422 4.72129,-0.39403 2.5281,-0.958 6.0703,-3.89196 6.0703,-5.02797 0,-0.37134 -4.04756,-0.67516 -8.99458,-0.67516 z m 6.66915,-11.7342 c -4.33876,-4.15679 -11.985739,-3.36148 -15.225839,1.58354 l -1.29327,1.97378 h 9.422269 c 5.18225,0 9.42227,-0.29912 9.42227,-0.66471 0,-0.36559 -1.04644,-1.66726 -2.32543,-2.89261 z M 82.651721,163.23296 c -4.62229,5.15279 -6.80904,10.71255 -7.37659,18.75483 l -0.49417,7.00235 h 5.43643 5.43643 l -0.034,-14.51397 -0.034,-14.51397 z M 80.338841,47.530051 h -5.31497 v 4.04819 c 0,4.93844 1.40242,11.85951 3.07339,15.16748 1.64827,3.26306 5.8686,8.58573 6.80758,8.58573 0.42414,0 0.74898,-6.02884 0.74898,-13.9007 v -13.9007 z"
       id="path4609"
       inkscape:connector-curvature="0" />
  </g>
</svg>
