<?xml version="1.0" encoding="UTF-8" standalone="no"?>
<!-- Created with Inkscape (http://www.inkscape.org/) -->

<svg
   xmlns:dc="http://purl.org/dc/elements/1.1/"
   xmlns:cc="http://creativecommons.org/ns#"
   xmlns:rdf="http://www.w3.org/1999/02/22-rdf-syntax-ns#"
   xmlns:svg="http://www.w3.org/2000/svg"
   xmlns="http://www.w3.org/2000/svg"
   xmlns:sodipodi="http://sodipodi.sourceforge.net/DTD/sodipodi-0.dtd"
   xmlns:inkscape="http://www.inkscape.org/namespaces/inkscape"
   width="123.54565mm"
   height="106.78347mm"
   viewBox="0 0 123.54565 106.78347"
   version="1.1"
   id="svg4575"
   inkscape:version="0.92.1 r15371"
   sodipodi:docname="games-icon2.svg">
  <defs
     id="defs4569" />
  <sodipodi:namedview
     id="base"
     pagecolor="#ffffff"
     bordercolor="#666666"
     borderopacity="1.0"
     inkscape:pageopacity="0.0"
     inkscape:pageshadow="2"
     inkscape:zoom="0.35"
     inkscape:cx="253.7143"
     inkscape:cy="162.17615"
     inkscape:document-units="mm"
     inkscape:current-layer="layer1"
     showgrid="false"
     inkscape:window-width="1360"
     inkscape:window-height="705"
     inkscape:window-x="-8"
     inkscape:window-y="-8"
     inkscape:window-maximized="1" />
  <metadata
     id="metadata4572">
    <rdf:RDF>
      <cc:Work
         rdf:about="">
        <dc:format>image/svg+xml</dc:format>
        <dc:type
           rdf:resource="http://purl.org/dc/dcmitype/StillImage" />
        <dc:title></dc:title>
      </cc:Work>
    </rdf:RDF>
  </metadata>
  <g
     inkscape:label="Layer 1"
     inkscape:groupmode="layer"
     id="layer1"
     transform="translate(-38.704757,-84.958967)">
    <path
       style="fill:#ffffff;stroke-width:0.35277778"
       d="m 94.796422,191.65974 c -3.330822,-0.40187 -5.827134,-0.9338 -6.458896,-1.37631 -0.397044,-0.2781 -1.110509,-0.40746 -1.65101,-0.29937 -1.258126,0.25163 -7.475496,-1.8383 -11.536807,-3.87801 -3.680884,-1.84865 -8.698734,-5.15982 -11.286277,-7.44757 -1.005852,-0.88932 -2.249505,-2.44776 -2.763674,-3.46321 -0.714776,-1.41164 -1.250788,-1.98119 -2.276912,-2.41941 -0.967984,-0.41339 -1.853022,-1.29803 -3.175214,-3.17381 -4.220961,-5.98821 -6.717997,-11.3299 -8.476246,-18.1325 -1.361392,-5.26717 -1.641349,-7.92265 -0.975887,-9.2566 0.461929,-0.92596 0.456839,-1.15266 -0.04627,-2.06071 -0.427578,-0.77172 -0.568914,-2.05166 -0.580129,-5.25363 l -0.01483,-4.23333 -3.424757,-9.11037 c -1.94506,-5.17415 -3.424756,-9.64418 -3.424756,-10.34588 0,-0.89521 0.284036,-1.51956 1.031197,-2.26672 l 1.031196,-1.0312 h 7.052647 7.052647 l 1.234708,-1.68201 c 1.669668,-2.27454 2.467309,-2.94456 3.838018,-3.22392 1.004461,-0.20471 1.264371,-0.49635 1.927931,-2.16326 0.883803,-2.22017 2.289852,-3.57842 6.977506,-6.74027 5.377747,-3.62732 10.930825,-6.1318 17.038873,-7.68466 5.981696,-1.52074 10.563669,-1.87483 12.344435,-0.95396 1.01429,0.52451 1.28731,0.52573 3.282385,0.0146 2.63183,-0.67424 4.87517,-0.47814 10.38984,0.90821 6.42981,1.61641 14.1175,5.03779 14.79704,6.58537 0.21187,0.48251 0.76186,0.82829 1.51079,0.94982 2.26136,0.36697 9.88723,7.10109 13.08535,11.55519 1.15807,1.61286 1.18147,1.62455 4.13076,2.06334 1.63135,0.2427 4.83165,0.88671 7.11177,1.43113 6.03021,1.43982 5.75457,0.93431 5.75457,10.55364 v 7.69334 l -0.88696,0.88695 c -1.16255,1.16256 -2.62853,1.42343 -4.42907,0.78817 -1.29956,-0.45851 -1.43755,-0.45624 -1.25454,0.0207 0.11309,0.29472 0.31171,1.80789 0.44137,3.36261 l 0.23574,2.82676 2.66439,2.01455 c 5.11834,3.86999 7.22426,8.59808 7.18245,16.12567 -0.0371,6.68638 -1.74362,11.60078 -5.37014,15.46511 -2.37945,2.53549 -4.97104,4.1918 -8.34287,5.332 -2.59605,0.87787 -8.28094,1.95705 -10.30932,1.95705 -0.97324,0 -1.56048,0.30369 -2.67187,1.38173 -6.11377,5.93038 -17.11035,11.62552 -25.25129,13.07769 -1.2533,0.22356 -3.07248,0.5632 -4.04262,0.75476 -1.95226,0.38549 -9.53015,0.68181 -11.465266,0.44834 z m 8.391948,-3.53954 c 1.92168,-0.20086 2.18799,-0.32699 2.55354,-1.20952 0.3238,-0.78171 0.29401,-1.37776 -0.14417,-2.88507 -0.7403,-2.54653 -2.06888,-4.32926 -6.523195,-8.75299 -4.874843,-4.84138 -6.42424,-7.4862 -8.048782,-13.73929 -0.309139,-1.18991 -0.403366,-1.01118 -2.596589,4.92511 -2.291506,6.20232 -3.376316,8.12767 -4.579404,8.12767 -0.359358,0 -0.756158,0.16631 -0.881779,0.36957 -0.334077,0.54054 2.008674,5.26772 4.065094,8.20251 3.185198,4.54569 3.062657,4.4481 6.014533,4.79 3.36031,0.38922 7.406042,0.45785 10.140752,0.17201 z m 11.59337,-2.41683 c 5.60525,-1.87292 11.15587,-4.90013 15.78193,-8.60717 l 1.37143,-1.09898 h -0.97337 c -3.31328,0 -12.71095,-1.92844 -18.25802,-3.74662 -3.9722,-1.30198 -4.14896,-1.61055 -4.14896,-7.24307 v -4.54455 l -7.49652,0.23119 c -4.123093,0.12715 -7.521437,0.24892 -7.551881,0.27059 -0.03045,0.0217 0.324587,1.24177 0.788959,2.71133 1.172817,3.71153 2.918933,6.22269 7.485332,10.76494 3.30703,3.28957 4.13917,4.34677 5.23093,6.64571 0.91973,1.93668 1.30828,3.24747 1.33254,4.49529 l 0.0343,1.76145 1.41111,-0.22175 c 0.77611,-0.12196 3.02263,-0.76022 4.99227,-1.41836 z m -28.804763,0.68144 c 0,-0.10766 -0.640203,-1.13849 -1.422678,-2.29073 -1.424856,-2.09819 -3.951842,-7.02656 -4.315129,-8.41577 -0.188852,-0.72218 -0.368935,-0.73907 -7.722916,-0.72438 l -7.529555,0.015 1.5875,1.41473 c 3.758383,3.34935 9.952627,6.90096 15.698612,9.00115 3.331654,1.21774 3.704166,1.3183 3.704166,0.99996 z m -30.51527,-28.71682 c -4.293506,-11.61247 -4.735616,-12.6665 -5.621191,-13.40146 -0.47515,-0.39434 -0.55136,-0.3414 -0.544793,0.37847 0.02556,2.802 2.375944,10.629 4.604808,15.33445 1.286637,2.71627 5.263914,9.08123 5.516661,8.82848 0.06558,-0.0656 -1.714393,-5.07854 -3.955485,-11.13994 z M 107.761,157.8 c 0.70413,-0.14253 0.79375,-0.3736 0.79375,-2.04664 0,-2.31153 0.87892,-3.61321 2.66608,-3.94849 1.00796,-0.18909 1.93768,0.0927 5.2598,1.59426 5.75528,2.6013 5.65758,2.58497 9.37175,1.5672 3.30998,-0.907 8.76696,-2.85769 9.27765,-3.31644 0.16133,-0.14492 -0.94992,-0.5319 -2.46945,-0.85995 -6.34826,-1.37052 -11.02418,-2.75851 -13.76937,-4.08725 -3.95984,-1.91668 -7.10178,-4.87018 -8.75487,-8.22981 -1.16674,-2.37118 -2.26739,-6.38859 -2.28102,-8.32573 -0.006,-0.79254 -0.19916,-0.68146 -2.15171,1.23473 -3.04127,2.98463 -6.478635,7.62797 -8.087601,10.92507 -2.223756,4.55692 -4.219434,10.9208 -4.225502,13.47442 l -0.0052,2.18553 1.675695,0.13069 c 1.99717,0.15575 11.568238,-0.0685 12.699998,-0.29759 z m 31.03933,-0.96052 c 1.19313,-0.63831 1.72305,-1.82265 1.34646,-3.00921 -0.36748,-1.15783 -1.10989,-1.14149 -3.80007,0.0836 -1.4126,0.64331 -3.98098,1.62867 -5.70751,2.18968 -2.79847,0.90932 -3.02819,1.04611 -2.11667,1.26037 0.56237,0.1322 2.84811,0.20566 5.07943,0.16326 3.05878,-0.0581 4.33778,-0.22734 5.19836,-0.68774 z M 74.610505,142.30695 c 0.465219,-1.33505 0.818455,-3.48451 0.956582,-5.82084 0.474236,-8.02161 2.374314,-17.88582 4.939968,-25.64575 1.379538,-4.17247 4.803063,-10.91207 7.140057,-14.05601 2.146335,-2.88745 5.621461,-6.33928 7.498126,-7.44785 1.25362,-0.74053 1.389157,-1.26132 0.268545,-1.03186 -0.436563,0.0894 -1.825625,0.2631 -3.086806,0.38603 -7.269885,0.7086 -16.766808,4.58558 -23.367378,9.53939 -2.715292,2.03786 -3.135239,2.51503 -4.246181,4.82476 -1.544749,3.21165 -1.958812,4.70162 -2.231893,8.03129 l -0.216996,2.64584 5.594418,15.59171 c 3.07693,8.57544 5.688815,15.48106 5.804191,15.34583 0.115376,-0.13523 0.541691,-1.19838 0.947367,-2.36254 z m 74.160915,-9.40791 c 0,-1.3498 -0.78116,-5.39473 -1.12509,-5.82582 -0.183,-0.22939 -1.79066,-0.76988 -3.57257,-1.2011 -4.5084,-1.09102 -11.41213,-1.1633 -13.4704,-0.14102 -1.17574,0.58394 -1.41111,0.87691 -1.41111,1.7564 0,1.46707 1.21758,1.96931 8.49555,3.50433 3.28259,0.69235 7.00021,1.5588 8.26139,1.92544 2.97325,0.86439 2.82223,0.86537 2.82223,-0.0182 z m -40.23434,-9.9178 c 0.90167,-3.5358 1.6914,-5.26747 3.49415,-7.66179 1.93015,-2.56352 5.24231,-5.03874 8.5796,-6.41162 2.67255,-1.09942 2.71754,-1.1392 3.48812,-3.08373 0.50423,-1.27242 0.8379,-3.03168 0.94235,-4.96854 0.14759,-2.73674 0.0872,-3.10746 -0.69144,-4.24489 -0.46923,-0.68545 -0.79743,-1.41342 -0.72933,-1.61773 0.16146,-0.4844 -5.97931,-3.34645 -9.6238,-4.4854 -3.24877,-1.01528 -8.12091,-1.99921 -9.89948,-1.99921 -0.66251,0 -2.10719,0.31725 -3.21041,0.705 -9.55791,3.35933 -17.447189,15.96904 -20.858003,33.33806 -1.244575,6.33781 -1.538676,8.308 -1.132205,7.58472 0.163562,-0.29104 1.90851,-5.05354 3.877663,-10.58333 2.658773,-7.46639 3.809146,-10.25847 4.469486,-10.84792 0.873591,-0.77981 1.049606,-0.79375 10.022085,-0.79375 8.965264,0 9.149644,0.0146 10.046404,0.79375 1.7866,1.55235 1.64073,2.34972 -2.4325,13.29689 -2.05334,5.51853 -3.73334,10.12126 -3.73334,10.22829 0,0.10704 1.50538,-1.3125 3.3453,-3.15452 3.29388,-3.29766 3.35605,-3.39132 4.04535,-6.09428 z M 60.224199,108.11635 c 0,-0.27517 0.101454,-0.79111 0.225453,-1.14652 0.195301,-0.55979 0.118805,-0.54482 -0.571978,0.11195 -0.438587,0.41699 -0.689422,0.93293 -0.557411,1.14653 0.340659,0.55119 0.903936,0.48143 0.903936,-0.11196 z m 73.201381,-1.57459 4.23334,-0.21815 -2.46945,-2.59374 c -2.17166,-2.28097 -5.75019,-5.37385 -7.19748,-6.22068 -0.40334,-0.23601 -0.45362,-0.0326 -0.27225,1.10161 0.2463,1.54029 -0.23068,5.07432 -0.9774,7.24169 l -0.48376,1.40411 1.46683,-0.24835 c 0.80676,-0.13659 3.37184,-0.34651 5.70017,-0.46649 z"
       id="path4588"
       inkscape:connector-curvature="0" />
  </g>
</svg>
