<?xml version="1.0" encoding="UTF-8" standalone="no"?>
<!-- Created with Inkscape (http://www.inkscape.org/) -->

<svg
   xmlns:dc="http://purl.org/dc/elements/1.1/"
   xmlns:cc="http://creativecommons.org/ns#"
   xmlns:rdf="http://www.w3.org/1999/02/22-rdf-syntax-ns#"
   xmlns:svg="http://www.w3.org/2000/svg"
   xmlns="http://www.w3.org/2000/svg"
   xmlns:sodipodi="http://sodipodi.sourceforge.net/DTD/sodipodi-0.dtd"
   xmlns:inkscape="http://www.inkscape.org/namespaces/inkscape"
   width="123.54567mm"
   height="106.78347mm"
   viewBox="0 0 123.54567 106.78347"
   version="1.1"
   id="svg8"
   inkscape:version="0.92.1 r15371"
   sodipodi:docname="games-icon.svg">
  <defs
     id="defs2" />
  <sodipodi:namedview
     id="base"
     pagecolor="#ffffff"
     bordercolor="#666666"
     borderopacity="1.0"
     inkscape:pageopacity="0.0"
     inkscape:pageshadow="2"
     inkscape:zoom="0.35"
     inkscape:cx="225.14287"
     inkscape:cy="167.89045"
     inkscape:document-units="mm"
     inkscape:current-layer="layer1"
     showgrid="false"
     inkscape:window-width="1360"
     inkscape:window-height="705"
     inkscape:window-x="-8"
     inkscape:window-y="-8"
     inkscape:window-maximized="1" />
  <metadata
     id="metadata5">
    <rdf:RDF>
      <cc:Work
         rdf:about="">
        <dc:format>image/svg+xml</dc:format>
        <dc:type
           rdf:resource="http://purl.org/dc/dcmitype/StillImage" />
        <dc:title></dc:title>
      </cc:Work>
    </rdf:RDF>
  </metadata>
  <g
     inkscape:label="Layer 1"
     inkscape:groupmode="layer"
     id="layer1"
     transform="translate(-46.264283,-86.470878)">
    <path
       style="fill:#ffffff;stroke-width:0.35277778;fill-opacity:1"
       d="m 102.35596,193.17165 c -3.330824,-0.40187 -5.827136,-0.93381 -6.458898,-1.37631 -0.397044,-0.2781 -1.110509,-0.40746 -1.65101,-0.29937 -1.258126,0.25163 -7.475496,-1.8383 -11.536807,-3.87801 -3.680884,-1.84865 -8.698734,-5.15982 -11.286277,-7.44757 -1.005852,-0.88932 -2.249505,-2.44776 -2.763674,-3.46321 -0.714776,-1.41164 -1.250788,-1.98119 -2.276912,-2.41941 -0.967984,-0.41339 -1.853022,-1.29804 -3.175214,-3.17381 -4.220961,-5.98821 -6.717997,-11.3299 -8.476246,-18.1325 -1.361392,-5.26717 -1.641349,-7.92266 -0.975887,-9.2566 0.461929,-0.92596 0.456839,-1.15267 -0.04628,-2.06071 -0.427578,-0.77172 -0.568914,-2.05166 -0.580129,-5.25363 l -0.01483,-4.23333 -3.424757,-9.11037 c -1.94506,-5.17415 -3.424756,-9.64418 -3.424756,-10.34589 0,-0.8952 0.284036,-1.51955 1.031197,-2.26672 l 1.031196,-1.03119 h 7.052647 7.052647 l 1.234708,-1.68201 c 1.669668,-2.27454 2.467309,-2.94456 3.838018,-3.22392 1.004461,-0.20472 1.264371,-0.49635 1.927931,-2.16326 0.883803,-2.22018 2.289852,-3.578417 6.977506,-6.740267 5.377747,-3.627322 10.930825,-6.131802 17.038873,-7.684662 5.981696,-1.52074 10.563674,-1.87483 12.344434,-0.95396 1.01429,0.52451 1.28731,0.52573 3.28239,0.0146 2.63182,-0.67424 4.87517,-0.47814 10.38985,0.90821 6.42981,1.61641 14.11749,5.03779 14.79704,6.58537 0.21187,0.482512 0.76185,0.828282 1.51078,0.949822 2.26137,0.36697 9.88724,7.101077 13.08535,11.555177 1.15807,1.61287 1.18148,1.62456 4.13077,2.06334 1.63135,0.24271 4.83164,0.88672 7.11176,1.43113 6.03021,1.43982 5.75457,0.93431 5.75457,10.55365 v 7.69333 l -0.88695,0.88696 c -1.16256,1.16255 -2.62854,1.42343 -4.42907,0.78816 -1.29956,-0.45851 -1.43756,-0.45623 -1.25455,0.0207 0.11309,0.29472 0.31171,1.8079 0.44137,3.36262 l 0.23574,2.82676 2.66439,2.01455 c 5.11835,3.86999 7.22427,8.59808 7.18246,16.12567 -0.0371,6.68638 -1.74362,11.60078 -5.37014,15.46511 -2.37945,2.53549 -4.97104,4.1918 -8.34287,5.332 -2.59606,0.87787 -8.28095,1.95705 -10.30933,1.95705 -0.97323,0 -1.56048,0.30369 -2.67186,1.38173 -6.11377,5.93037 -17.11035,11.62552 -25.25129,13.07768 -1.2533,0.22357 -3.07248,0.56321 -4.04263,0.75477 -1.95227,0.38549 -9.53015,0.68181 -11.46527,0.44834 z m 8.39194,-3.53954 c 1.92169,-0.20086 2.18799,-0.327 2.55355,-1.20952 0.3238,-0.78172 0.29401,-1.37777 -0.14417,-2.88507 -0.7403,-2.54653 -2.06889,-4.32927 -6.5232,-8.75299 -4.87484,-4.84138 -6.42424,-7.4862 -8.048781,-13.73929 -0.309139,-1.18991 -0.403366,-1.01118 -2.596589,4.92511 -2.291506,6.20232 -3.376316,8.12767 -4.579404,8.12767 -0.359358,0 -0.756158,0.1663 -0.881779,0.36957 -0.334077,0.54054 2.008674,5.26772 4.065094,8.2025 3.185198,4.5457 3.062657,4.44811 6.014529,4.79001 3.36031,0.38922 7.40604,0.45785 10.14075,0.17201 z m 11.59339,-2.41683 c 5.60525,-1.87293 11.15587,-4.90013 15.78193,-8.60717 l 1.37143,-1.09898 h -0.97338 c -3.31327,0 -12.71095,-1.92844 -18.25802,-3.74662 -3.97219,-1.30198 -4.14895,-1.61056 -4.14895,-7.24308 v -4.54454 l -7.49654,0.23119 c -4.12309,0.12715 -7.52143,0.24892 -7.55187,0.27059 -0.0305,0.0217 0.32458,1.24177 0.78895,2.71132 1.17282,3.71154 2.91894,6.2227 7.48533,10.76495 3.30704,3.28957 4.13918,4.34677 5.23095,6.64571 0.91972,1.93668 1.30828,3.24746 1.33254,4.49529 l 0.0343,1.76145 1.41111,-0.22175 c 0.77611,-0.12197 3.02263,-0.76022 4.99228,-1.41836 z m -28.804777,0.68144 c 0,-0.10766 -0.640203,-1.13849 -1.422678,-2.29073 -1.424856,-2.09819 -3.951842,-7.02657 -4.315129,-8.41578 -0.188852,-0.72217 -0.368935,-0.73906 -7.722916,-0.72437 l -7.529555,0.015 1.5875,1.41473 c 3.758383,3.34935 9.952627,6.90096 15.698612,9.00115 3.331654,1.21774 3.704166,1.3183 3.704166,0.99996 z m 59.567327,-14.94041 c 8.42942,-2.47421 12.59343,-7.58278 13.30153,-16.31885 0.46164,-5.69545 -1.04998,-10.93816 -3.96931,-13.76665 -3.31886,-3.21559 -7.98635,-5.07339 -17.57038,-6.99351 -6.01916,-1.20592 -8.73948,-2.06109 -10.19277,-3.20425 -1.23677,-0.97285 -1.76668,-3.07035 -1.25539,-4.96912 0.85922,-3.19091 3.9398,-4.52258 10.4622,-4.52258 4.83937,0 8.56385,0.68719 13.64004,2.51668 2.15956,0.77832 4.20795,1.50244 4.55197,1.60916 0.58549,0.18163 0.61932,-0.22041 0.52916,-6.28743 l -0.0963,-6.48146 -3.15331,-0.79133 c -5.86336,-1.47141 -10.55242,-2.01194 -17.48419,-2.01548 -7.31537,-0.004 -10.09104,0.5279 -14.27511,2.73418 -4.1815,2.20493 -7.45176,6.59576 -8.3008,11.14508 -0.52198,2.79688 -0.43183,7.35647 0.19287,9.75551 1.77193,6.80471 6.66314,10.20826 18.69966,13.01217 8.2368,1.91876 10.37548,2.69444 11.75214,4.26237 1.98694,2.26299 1.76183,5.58341 -0.5221,7.7012 -4.09477,3.79688 -16.87591,2.66091 -26.90893,-2.39163 -1.37078,-0.69032 -2.65505,-1.25513 -2.85392,-1.25513 -0.23389,0 -0.36158,2.30318 -0.36158,6.52166 v 6.52165 l 1.32264,0.55264 c 2.03968,0.85223 8.82614,2.59201 12.30562,3.15467 2.20653,0.35681 5.26022,0.47142 10.36062,0.38884 6.14283,-0.0995 7.62256,-0.23174 9.82566,-0.87839 z m -51.70328,-29.40485 c 5.97446,-16.15127 10.95472,-29.72622 11.06724,-30.16656 l 0.20459,-0.80061 -7.88308,0.0951 -7.883088,0.0951 -7.64092,21.32658 c -4.202507,11.72962 -7.778831,21.5452 -7.947385,21.81242 -0.206452,0.3273 -2.365967,-5.25066 -6.617673,-17.09324 -3.471168,-9.66851 -7.020004,-19.52378 -7.886304,-21.90062 l -1.575091,-4.32153 h -7.937522 c -7.415451,0 -7.921795,0.0406 -7.698409,0.61736 0.304026,0.78495 21.310016,57.43427 21.780305,58.7375 l 0.350089,0.97014 9.402297,-0.003 9.402293,-0.003 10.862658,-29.36594 z M 63.021242,159.1799 c -4.293505,-11.61247 -4.735615,-12.6665 -5.62119,-13.40146 -0.47515,-0.39434 -0.55136,-0.3414 -0.544793,0.37847 0.02556,2.802 2.375944,10.629 4.604808,15.33445 1.286637,2.71627 5.263914,9.08123 5.516661,8.82848 0.06557,-0.0656 -1.714393,-5.07854 -3.955486,-11.13994 z m 52.299308,0.13201 c 0.70413,-0.14253 0.79375,-0.3736 0.79375,-2.04664 0,-2.31153 0.87892,-3.61321 2.66607,-3.94849 1.00797,-0.18909 1.93769,0.0927 5.2598,1.59425 5.75528,2.60131 5.65759,2.58498 9.37176,1.56721 3.30997,-0.907 8.76696,-2.85769 9.27764,-3.31644 0.16133,-0.14492 -0.94992,-0.5319 -2.46944,-0.85995 -6.34827,-1.37052 -11.02419,-2.75851 -13.76937,-4.08725 -3.95985,-1.91668 -7.10178,-4.87018 -8.75487,-8.22981 -1.16674,-2.37118 -2.2674,-6.3886 -2.28102,-8.32573 -0.006,-0.79255 -0.19916,-0.68146 -2.15172,1.23473 -3.04127,2.98463 -6.47864,7.62796 -8.0876,10.92506 -2.22376,4.55693 -4.21944,10.92081 -4.22551,13.47443 l -0.005,2.18553 1.6757,0.13068 c 1.99717,0.15576 11.56823,-0.0685 12.70001,-0.29758 z m 31.03933,-0.96052 c 1.19313,-0.63831 1.72305,-1.82265 1.34645,-3.00921 -0.36748,-1.15783 -1.10989,-1.14149 -3.80006,0.0836 -1.4126,0.64331 -3.98098,1.62867 -5.70752,2.18968 -2.79846,0.90932 -3.02818,1.04611 -2.11666,1.26037 0.56236,0.1322 2.84811,0.20566 5.07943,0.16326 3.05878,-0.0581 4.33777,-0.22734 5.19836,-0.68774 z M 82.170041,143.81885 c 0.465219,-1.33504 0.818455,-3.4845 0.956582,-5.82083 0.474236,-8.02161 2.374314,-17.88582 4.939968,-25.64575 1.379538,-4.17247 4.803063,-10.91207 7.140057,-14.056007 2.146335,-2.88745 5.621462,-6.339282 7.498122,-7.447852 1.25362,-0.74053 1.38916,-1.26132 0.26855,-1.03186 -0.43656,0.0894 -1.82563,0.2631 -3.086807,0.38603 -7.269885,0.7086 -16.766808,4.585582 -23.367378,9.539392 -2.715292,2.037857 -3.135239,2.515017 -4.246181,4.824757 -1.544749,3.21165 -1.958812,4.70162 -2.231893,8.03129 l -0.216996,2.64583 5.594418,15.59171 c 3.07693,8.57545 5.688815,15.48107 5.804191,15.34584 0.115376,-0.13523 0.541691,-1.19838 0.947367,-2.36255 z m 74.160919,-9.40791 c 0,-1.34979 -0.78115,-5.39472 -1.12508,-5.82582 -0.183,-0.22938 -1.79066,-0.76987 -3.57258,-1.2011 -4.5084,-1.09102 -11.41212,-1.16329 -13.47039,-0.14102 -1.17574,0.58395 -1.41111,0.87692 -1.41111,1.75641 0,1.46707 1.21758,1.96931 8.49555,3.50433 3.28258,0.69234 7.00021,1.55879 8.26139,1.92544 2.97325,0.86439 2.82222,0.86537 2.82222,-0.0182 z m -40.23434,-9.9178 c 0.90168,-3.53579 1.69141,-5.26746 3.49416,-7.66179 1.93014,-2.56352 5.24231,-5.03873 8.5796,-6.41162 2.67254,-1.09942 2.71753,-1.13919 3.48811,-3.08372 0.50424,-1.27242 0.83791,-3.03168 0.94236,-4.96855 0.14758,-2.736727 0.0872,-3.107447 -0.69145,-4.244877 -0.46923,-0.68545 -0.79743,-1.41343 -0.72933,-1.61773 0.16147,-0.4844 -5.9793,-3.346452 -9.6238,-4.485402 -3.24877,-1.01528 -8.12091,-1.99921 -9.89949,-1.99921 -0.66251,0 -2.10719,0.31725 -3.21041,0.705 -9.557904,3.35933 -17.447183,15.969039 -20.857997,33.338059 -1.244575,6.3378 -1.538676,8.308 -1.132205,7.58472 0.163562,-0.29104 1.90851,-5.05354 3.877663,-10.58334 2.658773,-7.46638 3.809146,-10.25846 4.469486,-10.84791 0.873591,-0.77981 1.049606,-0.79375 10.022083,-0.79375 8.96527,0 9.14964,0.0146 10.04642,0.79375 1.7866,1.55235 1.64073,2.34972 -2.43252,13.29688 -2.05334,5.51853 -3.73334,10.12127 -3.73334,10.2283 0,0.10703 1.50539,-1.3125 3.3453,-3.15453 3.2939,-3.29766 3.35607,-3.39131 4.04536,-6.09428 z M 67.783735,109.62826 c 0,-0.27517 0.101454,-0.79111 0.225453,-1.14653 0.195301,-0.55979 0.118805,-0.54482 -0.571978,0.11195 -0.438587,0.417 -0.689422,0.93293 -0.557411,1.14653 0.340659,0.5512 0.903936,0.48144 0.903936,-0.11195 z m 73.201395,-1.57459 4.23333,-0.21815 -2.46944,-2.59374 c -2.17167,-2.28098 -5.7502,-5.373847 -7.19748,-6.220687 -0.40335,-0.236 -0.45362,-0.0326 -0.27226,1.101617 0.24631,1.54028 -0.23068,5.07431 -0.9774,7.24169 l -0.48376,1.40411 1.46684,-0.24835 c 0.80676,-0.13659 3.37183,-0.34651 5.70017,-0.46649 z"
       id="path34"
       inkscape:connector-curvature="0" />
  </g>
</svg>
