<?xml version="1.0" encoding="UTF-8" standalone="no"?>
<!-- Created with Inkscape (http://www.inkscape.org/) -->

<svg
   xmlns:dc="http://purl.org/dc/elements/1.1/"
   xmlns:cc="http://creativecommons.org/ns#"
   xmlns:rdf="http://www.w3.org/1999/02/22-rdf-syntax-ns#"
   xmlns:svg="http://www.w3.org/2000/svg"
   xmlns="http://www.w3.org/2000/svg"
   xmlns:sodipodi="http://sodipodi.sourceforge.net/DTD/sodipodi-0.dtd"
   xmlns:inkscape="http://www.inkscape.org/namespaces/inkscape"
   width="210mm"
   height="297mm"
   viewBox="0 0 210 297"
   version="1.1"
   id="svg8"
   inkscape:version="0.92.1 r15371"
   sodipodi:docname="team-icon.svg">
  <defs
     id="defs2" />
  <sodipodi:namedview
     id="base"
     pagecolor="#ffffff"
     bordercolor="#666666"
     borderopacity="1.0"
     inkscape:pageopacity="0.0"
     inkscape:pageshadow="2"
     inkscape:zoom="0.35"
     inkscape:cx="400"
     inkscape:cy="560"
     inkscape:document-units="mm"
     inkscape:current-layer="layer1"
     showgrid="false"
     inkscape:window-width="1366"
     inkscape:window-height="705"
     inkscape:window-x="-8"
     inkscape:window-y="-8"
     inkscape:window-maximized="1" />
  <metadata
     id="metadata5">
    <rdf:RDF>
      <cc:Work
         rdf:about="">
        <dc:format>image/svg+xml</dc:format>
        <dc:type
           rdf:resource="http://purl.org/dc/dcmitype/StillImage" />
        <dc:title></dc:title>
      </cc:Work>
    </rdf:RDF>
  </metadata>
  <g
     inkscape:label="Layer 1"
     inkscape:groupmode="layer"
     id="layer1">
    <path
       style="fill:#1a1a1a;stroke-width:0.35277778"
       d="m 140.60268,201.30703 c -0.62611,-0.18092 -1.29444,-0.62053 -1.48518,-0.97692 -0.44749,-0.83615 -0.0626,-3.22327 0.55803,-3.46145 0.63765,-0.24469 0.60814,-1.32469 -0.0511,-1.87184 -0.31866,-0.26446 -0.52917,-1.03633 -0.52917,-1.94028 0,-0.83077 -0.21295,-1.67783 -0.47687,-1.89686 -0.28506,-0.23659 -0.56175,-1.49665 -0.68793,-3.13296 -0.1161,-1.50545 -0.46113,-3.33563 -0.76673,-4.06706 -0.58131,-1.39125 -3.51226,-6.49659 -5.08781,-8.8623 -1.79606,-2.6968 -2.25757,-3.59841 -3.44756,-6.73526 -0.66245,-1.74625 -1.39622,-3.5589 -1.63059,-4.02811 -0.49581,-0.99262 -3.61452,-3.55661 -4.32608,-3.55661 -0.26687,0 -1.00668,0.45766 -1.64402,1.01702 -1.32526,1.16312 -3.50284,2.15798 -4.72346,2.15798 -0.50505,0 -1.47838,-0.6187 -2.47378,-1.57246 -1.56511,-1.49964 -1.74921,-1.57725 -3.97495,-1.6757 -2.29693,-0.1016 -2.34375,-0.12351 -2.96076,-1.38535 -0.45519,-0.93091 -0.68755,-2.54963 -0.84825,-5.9092 l -0.22132,-4.62707 -1.86394,-0.88178 c -1.02516,-0.48498 -2.25125,-0.88178 -2.72463,-0.88178 -1.15884,0 -3.128126,0.85212 -3.805306,1.64658 -0.83253,0.97669 -1.72768,3.11062 -1.72768,4.11856 0,0.4928 -0.14654,0.98656 -0.32563,1.09726 -0.17911,0.11069 -0.43612,0.70424 -0.57114,1.31901 -0.35858,1.6326 -1.85708,5.0137 -3.85405,8.69597 -1.58289,2.91874 -1.85035,3.23096 -2.767757,3.23096 -0.55855,0 -1.43694,-0.29714 -1.951957,-0.66031 -0.51502,-0.36317 -2.762027,-1.57129 -4.993347,-2.68472 -2.231319,-1.11343 -4.478313,-2.24504 -4.993319,-2.5147 -0.515006,-0.26965 -0.992784,-0.49027 -1.06173,-0.49027 -0.296203,0 -3.717834,3.4298 -4.223248,4.23333 -0.587551,0.93412 -3.127259,7.1157 -3.127259,7.61167 0,0.16073 -0.457034,0.77605 -1.015629,1.36737 -0.558599,0.59132 -1.450009,1.86888 -1.980914,2.83902 -0.530903,0.97014 -1.270932,2.19431 -1.644509,2.72038 -0.943557,1.32873 -1.90826,4.30018 -2.190391,6.74681 -0.13058,1.13237 -0.457185,2.48383 -0.725787,3.00325 -0.268605,0.51943 -0.596455,1.73607 -0.728557,2.70365 -0.342311,2.50723 -0.516943,2.99396 -1.074183,2.99396 -0.696183,0 -1.248107,1.15582 -0.851373,1.7829 0.507083,0.8015 0.387879,2.6985 -0.206943,3.29332 -1.329715,1.32972 -5.49191,1.12874 -7.653983,-0.36958 -1.70717,-1.18307 -1.998952,-2.28664 -1.097894,-4.15242 0.381469,-0.78989 1.041252,-2.15054 1.466183,-3.02366 0.424935,-0.87313 0.772167,-1.72226 0.771628,-1.88696 -0.0018,-0.49082 1.140527,-2.81253 1.828464,-3.71687 0.351999,-0.46273 0.639999,-1.06144 0.639999,-1.33048 0,-0.26903 0.380055,-1.08106 0.844568,-1.80451 0.464513,-0.72344 1.179047,-2.7441 1.587853,-4.49035 0.408806,-1.74625 1.078695,-4.52437 1.488641,-6.17361 0.409949,-1.64924 0.85562,-3.63361 0.990381,-4.40972 0.326686,-1.88144 2.291045,-5.80613 3.77202,-7.53632 0.656872,-0.7674 1.194315,-1.51245 1.194315,-1.65565 0,-0.1432 0.532832,-0.91172 1.184071,-1.70781 0.651238,-0.79609 1.545092,-2.16182 1.986343,-3.03495 0.441251,-0.87312 1.099048,-2.00888 1.461763,-2.5239 0.362719,-0.51502 0.65949,-1.16788 0.65949,-1.4508 0,-0.28291 0.47625,-1.11367 1.058333,-1.84613 0.582084,-0.73246 1.058334,-1.51975 1.058334,-1.74955 0,-0.2298 0.471833,-1.04141 1.048519,-1.80358 0.576686,-0.76217 1.052936,-1.5599 1.058333,-1.77273 0.0054,-0.21283 0.855197,-1.64999 1.888444,-3.19367 3.436264,-5.13382 3.593162,-5.50557 2.98104,-7.06318 -0.291928,-0.74284 -0.739712,-2.66079 -0.995074,-4.26211 -0.439607,-2.7567 -0.413769,-3.16935 0.485962,-7.76112 0.522641,-2.66729 0.948196,-5.26679 0.945681,-5.77667 -0.0025,-0.50988 0.233553,-1.49697 0.524595,-2.19353 0.347373,-0.83138 0.529844,-2.45203 0.531135,-4.71739 0.0025,-4.32394 0.401454,-5.88678 2.637243,-10.330076 0.439343,-0.87313 0.9014,-2.02406 1.026795,-2.55764 0.125395,-0.53358 0.383258,-0.97014 0.573031,-0.97014 0.189774,0 0.940809,-0.53278 1.668974,-1.18396 2.517869,-2.25168 6.269546,-4.10771 8.303076,-4.10771 1.12091,0 1.25963,-0.75279 0.43136,-2.34092 -0.28985,-0.55576 -0.52797,-1.25653 -0.52917,-1.55727 -10e-4,-0.30075 -0.14345,-0.69762 -0.31613,-0.88195 -0.17268,-0.18432 -0.23041,-1.97096 -0.1283,-3.9703 0.21124,-4.13612 0.63185,-5.05679 3.20773,-7.02149 1.31724,-1.00469 1.79867,-1.1614 3.56785,-1.1614 1.124826,0 2.571266,0.10522 3.214296,0.23383 1.46189,0.29237 4.20984,2.95262 4.21288,4.07841 0.001,0.44167 0.23932,1.25775 0.52917,1.8135 0.28985,0.55576 0.52699,1.27948 0.52699,1.60827 0,0.32879 0.23308,0.90596 0.51795,1.28259 0.70639,0.93392 0.71409,4.51764 0.0112,5.2205 -0.92045,0.92045 -0.59719,1.47337 1.13173,1.93578 0.91349,0.24432 2.22317,0.7038 2.91041,1.02106 3.3575,1.54998 9.18703,6.32907 9.18703,7.53159 0,0.34801 0.635,1.98182 1.41111,3.630686 1.22882,2.61065 1.41111,3.3188 1.41111,5.48177 0,2.47637 0.33342,3.70977 1.97375,7.30131 0.4533,0.99251 0.99374,2.56116 1.20097,3.48587 0.41673,1.8595 2.16611,4.68069 3.98675,6.42934 1.21708,1.16895 1.85614,2.27948 2.89868,5.03716 0.33008,0.87312 0.8922,2.2225 1.24915,2.99861 0.73465,1.59731 3.9483,4.98434 5.06332,5.33648 0.86944,0.27459 1.44905,1.03401 2.77334,3.63372 0.92558,1.81702 0.96565,2.09082 0.74898,5.11782 -0.16797,2.34654 -0.39807,3.38596 -0.86418,3.90365 -0.3494,0.38805 -0.96122,1.57868 -1.35962,2.64583 -0.81575,2.18509 -3.63653,5.64444 -4.60252,5.64444 -0.34926,0 -0.83263,0.23813 -1.07418,0.52917 -0.24154,0.29104 -0.64848,0.52917 -0.90432,0.52917 -0.82108,0 -0.93812,0.71019 -0.27872,1.69121 1.49198,2.21967 4.00527,7.13587 4.00527,7.83464 0,0.30997 0.14202,0.71441 0.31561,0.89873 0.17358,0.18433 0.4773,1.04952 0.67493,1.92264 1.82334,8.05553 4.53366,15.3246 6.95796,18.6612 0.64171,0.8832 0.87094,1.64922 0.87094,2.91041 0,0.94145 -0.15875,1.71172 -0.35278,1.71172 -0.61295,0 -0.38195,0.8704 0.35278,1.32925 0.54862,0.34261 0.70556,0.82268 0.70556,2.15833 0,1.99931 -0.229,2.24507 -2.79806,3.00282 -2.10811,0.62179 -3.83282,0.67521 -5.57227,0.17259 z M 125.4907,139.64725 c 0.43415,-0.70246 3.14866,-1.80924 4.95929,-2.02205 1.05892,-0.12446 1.83823,-0.36718 1.7318,-0.53939 -0.10643,-0.17221 -1.1108,-0.77615 -2.23191,-1.34209 -1.12112,-0.56594 -2.53962,-1.45073 -3.15222,-1.9662 -1.37889,-1.16026 -3.38266,-4.52636 -4.14916,-6.97011 -0.31691,-1.01033 -0.99141,-3.0276 -1.49889,-4.48281 l -0.9227,-2.64583 -0.31925,2.46944 c -0.46061,3.5629 -0.38666,5.28039 0.26757,6.21445 0.31656,0.45194 0.57555,1.0917 0.57555,1.4217 0,0.33 0.40798,1.08484 0.90662,1.67744 0.65994,0.7843 0.9594,1.63153 1.10063,3.11388 0.31056,3.2597 1.96026,6.32136 2.73267,5.07157 z M 85.296628,122.3246 c 0.119916,-0.19403 0.04991,-0.35278 -0.155568,-0.35278 -0.205479,0 -0.373599,0.15875 -0.373599,0.35278 0,0.19403 0.07,0.35278 0.155568,0.35278 0.08556,0 0.253682,-0.15875 0.373599,-0.35278 z m 48.418742,62.06063 c -0.78013,-0.45438 -0.87409,-2.79396 -0.11222,-2.79396 0.60147,0 1.9643,1.81226 1.9643,2.61209 0,0.63335 -0.92156,0.72385 -1.85208,0.18187 z M 17.651488,183.86627 c -0.419712,-0.43771 -0.307374,-2.81856 0.176389,-3.73829 0.242534,-0.46111 1.195034,-1.96904 2.116666,-3.35096 0.921632,-1.38192 1.675695,-2.91646 1.675695,-3.41008 0,-0.97396 0.819075,-2.00623 1.591878,-2.00623 0.823591,0 0.982485,-0.44977 2.305642,-6.52639 2.026564,-9.30703 2.827691,-11.50129 5.884323,-16.11697 0.98165,-1.48234 1.966422,-3.24543 2.18838,-3.91797 0.221957,-0.67254 0.715084,-1.50472 1.095837,-1.8493 0.380749,-0.34458 0.692273,-0.8285 0.692273,-1.07539 0,-0.24688 0.359534,-0.73822 0.798968,-1.09185 0.439431,-0.35363 1.828493,-1.91117 3.086806,-3.46121 2.730023,-3.36294 6.802903,-7.5887 7.314159,-7.5887 0.200886,0 0.464855,-0.39687 0.586599,-0.88194 0.169728,-0.67625 0.450165,-0.88195 1.202411,-0.88195 1.335677,0 1.827724,-0.59507 1.827724,-2.21041 0,-0.75006 0.171404,-1.68402 0.380894,-2.07546 0.30086,-0.56216 0.245262,-0.86124 -0.264583,-1.42332 -0.355011,-0.39138 -0.806725,-1.29098 -1.003808,-1.99912 l -0.35833,-1.28752 -5.638892,-1.88768 c -4.943973,-1.65504 -5.772404,-1.83981 -6.722273,-1.4993 -0.595859,0.2136 -2.122261,0.38837 -3.392007,0.38837 -1.695327,0 -2.532134,0.17148 -3.149953,0.6455 -2.66071,2.04143 -6.849593,2.10907 -9.828542,0.15869 -1.52917,-1.00118 -3.370332,-3.3711 -3.728919,-4.79983 -0.130208,-0.51878 -0.374353,-0.94325 -0.542544,-0.94325 -0.168191,0 -0.150982,-0.40721 0.03824,-0.90491 0.189225,-0.4977 0.344046,-1.45808 0.344046,-2.13419 0,-2.15879 1.852194,-5.03934 4.056945,-6.3094 2.688573,-1.54877 5.4847,-1.694946 8.443394,-0.4414 2.673032,1.13252 4.929868,2.72288 5.844949,4.11884 l 0.815859,1.24461 2.411059,-2.63586 c 2.083065,-2.27728 2.515408,-2.98735 3.178087,-5.219596 1.289989,-4.34534 3.876396,-7.16917 9.116374,-9.95324 l 0.881945,-0.46859 -1.111427,-0.29079 c -1.859184,-0.48643 -3.204915,-3.58616 -3.501192,-8.06456 -0.201002,-3.03824 0.502694,-6.71339 1.495488,-7.81041 2.372745,-2.62186 8.260694,-2.33252 10.361652,0.50918 1.046148,1.41499 1.692681,7.11956 1.033328,9.11742 -0.368804,1.11749 -0.338571,1.44399 0.221502,2.39212 0.512625,0.8678 0.887155,1.098 1.786446,1.098 0.625814,0 1.233907,0.15544 1.351319,0.34541 0.314318,0.50858 4.471991,2.88946 4.680931,2.68052 0.0982,-0.0982 0.908187,0.61605 1.799971,1.58723 1.882648,2.05027 3.365415,5.47065 3.735115,8.61601 0.136836,1.16417 0.48326,2.821456 0.769832,3.682876 1.502142,4.51535 2.219865,8.23153 2.299543,11.90649 0.09646,4.44874 -0.28617,8.08048 -0.965944,9.16832 -0.407832,0.65265 -0.392973,1.47875 0.09837,5.46805 0.859614,6.97948 0.827461,7.33533 -0.861557,9.53462 -0.78878,1.02708 -1.852405,2.65851 -2.363608,3.62541 -0.511203,0.9669 -1.216187,2.07815 -1.56663,2.46945 -0.350439,0.39129 -0.735213,0.98926 -0.855048,1.32881 -0.265529,0.75235 -1.298364,0.82427 -1.298364,0.0904 0,-0.75711 -2.758278,-2.64804 -3.862666,-2.64804 -0.542643,0 -2.168857,0.81673 -3.877709,1.94749 -1.618717,1.07112 -3.515896,2.20377 -4.215955,2.517 -0.70006,0.31322 -3.701856,1.73873 -6.670658,3.16778 -2.968805,1.42906 -5.529054,2.59828 -5.689445,2.59828 -0.16039,0 -0.47711,-0.2235 -0.70382,-0.49667 -0.226709,-0.27316 -0.970093,-0.76141 -1.651959,-1.08497 -1.958732,-0.92948 -2.562462,-0.28976 -4.548336,4.81943 -0.929277,2.39082 -2.365371,5.46932 -3.191316,6.84112 -2.620349,4.3521 -4.009549,7.68005 -4.752093,11.38408 -0.569408,2.84038 -0.627165,3.71074 -0.294675,4.44048 0.616969,1.3541 -0.026,2.37378 -2.217551,3.51681 -1.558675,0.81294 -2.482121,1.01897 -5.243262,1.16981 -1.843264,0.10069 -3.470451,0.0589 -3.615972,-0.0929 z M 46.647123,111.1239 c -0.01118,-0.14552 -0.299343,-1.33428 -0.640352,-2.6417 l -0.620017,-2.37712 -1.064363,1.1424 c -1.382977,1.48438 -2.59382,3.1021 -2.59382,3.46542 0,0.15818 0.912813,0.34488 2.028473,0.41489 1.115659,0.07 2.226909,0.15731 2.469444,0.19399 0.242535,0.0367 0.431821,-0.0524 0.420635,-0.19788 z m 59.639767,69.63035 c 0,-0.26633 -0.75406,-1.1376 -1.67569,-1.93616 -0.92163,-0.79856 -2.25178,-1.95265 -2.95588,-2.56463 -0.7041,-0.61199 -1.53753,-1.25673 -1.852076,-1.43276 -0.31455,-0.17603 -0.5719,-0.52568 -0.5719,-0.77701 0,-0.25133 -0.30178,-0.73007 -0.67062,-1.06386 -0.36884,-0.3338 -0.77477,-1.16207 -0.90207,-1.84061 -0.22889,-1.2201 -2.28911,-3.64177 -4.5567,-5.35614 -0.93928,-0.71013 -0.98246,-0.84313 -0.58513,-1.80236 0.23595,-0.56962 0.73198,-1.30988 1.10231,-1.64501 0.37033,-0.33515 0.67332,-0.82503 0.67332,-1.08863 0,-0.2636 0.14023,-0.75493 0.31162,-1.09185 0.17139,-0.33692 0.51885,-1.05501 0.77215,-1.59576 0.25329,-0.54075 0.68868,-0.93762 0.96752,-0.88194 0.27885,0.0557 1.43511,1.92686 2.56946,4.15818 2.649286,5.21126 6.074816,8.70004 9.978966,10.16324 2.19369,0.82215 3.39195,2.07515 3.39195,3.54689 0,1.04642 -0.33934,1.56528 -2.26403,3.46178 -2.1535,2.12197 -3.7332,2.86105 -3.7332,1.74663 z m 35.49192,-9.59878 c -0.11778,-0.30691 -0.21414,-0.92376 -0.21414,-1.37079 0,-0.44702 -0.23714,-1.26747 -0.52699,-1.82323 -0.74467,-1.42784 -0.66158,-2.79701 0.35027,-5.77196 0.78746,-2.31526 0.82513,-2.65442 0.35277,-3.17638 -0.70644,-0.78061 -0.66856,-1.8798 0.0885,-2.56864 0.33955,-0.30894 0.91264,-1.16698 1.27355,-1.90676 0.3609,-0.73978 0.79848,-1.58318 0.97238,-1.87422 0.17391,-0.29104 0.40615,-0.76729 0.51609,-1.05834 0.10994,-0.29104 0.37756,-0.84666 0.59471,-1.23472 0.21715,-0.38805 0.57393,-2.21169 0.79284,-4.05253 0.36795,-3.09407 0.34144,-3.50891 -0.35089,-5.49023 -0.86678,-2.48057 -2.7047,-4.94567 -3.91359,-5.24909 -1.06956,-0.26844 -4.38216,-3.70189 -4.38264,-4.54253 -3.6e-4,-0.61907 2.2667,-6.19641 4.11459,-10.12256 1.24374,-2.64256 2.23504,-5.5761 2.23504,-6.61417 0,-0.4726 -0.3175,-1.26291 -0.70556,-1.75624 -0.84968,-1.08019 -0.9057,-2.82304 -0.14805,-4.60551 3.10846,-7.31303 5.08694,-15.386466 5.08694,-20.757846 v -1.95951 l -1.04656,0.88062 c -0.57561,0.48435 -2.04405,1.20968 -3.2632,1.61185 -3.37652,1.11384 -11.77349,2.92293 -14.71604,3.17051 l -2.62163,0.22057 -0.0611,2.46945 c -0.0639,2.58192 -0.95906,5.11528 -1.80744,5.11528 -0.53935,0 -1.53122,-1.79221 -1.53122,-2.76676 0,-0.40833 -0.71823,-1.23286 -1.77773,-2.04084 -0.97775,-0.74565 -2.01329,-1.71522 -2.30119,-2.15462 -0.2879,-0.43939 -0.69539,-0.7989 -0.90553,-0.7989 -0.21014,0 -0.96054,-0.44092 -1.66756,-0.97982 -1.54772,-1.17971 -3.69824,-2.19518 -4.64885,-2.19518 -0.68893,0 -0.97612,-1.01098 -0.4396,-1.5475 0.13969,-0.1397 0.25876,-0.60272 0.26459,-1.02894 0.0104,-0.75983 0.0897,-0.77253 4.06754,-0.65109 3.45657,0.10552 4.60511,-0.0119 7.76111,-0.79338 2.34825,-0.58148 4.6843,-0.91737 6.38176,-0.9176 4.60158,-7.1e-4 11.11459,-2.11335 12.84137,-4.16551 1.70795,-2.02977 4.55071,-3.91035 6.54751,-4.33138 1.05733,-0.22294 2.08566,-0.53578 2.28519,-0.69521 0.6558,-0.52401 8.98353,-1.77679 10.24184,-1.54073 1.02231,0.19179 1.21959,0.12421 1.25249,-0.42898 0.0817,-1.37355 -0.11709,-2.33086 -0.80858,-3.89408 -0.41533,-0.93893 -0.79203,-2.74668 -0.89971,-4.31762 -0.21203,-3.09355 0.35535,-4.63856 2.43208,-6.62259 2.0502,-1.9587 4.6337,-2.39618 7.79311,-1.31966 1.75849,0.59918 2.63415,1.61172 2.95438,3.4162 0.11176,0.62976 0.48928,1.94363 0.83892,2.91971 0.70221,1.96031 0.72551,5.23642 0.0677,9.5142 -0.20886,1.35819 -0.2703,2.56715 -0.13653,2.68657 0.13377,0.11942 1.41638,0.65773 2.85026,1.19625 3.68949,1.38565 5.69834,3.48924 8.12497,8.50815 1.0203,2.11024 2.31889,4.7356 2.88576,5.83413 2.04931,3.97134 2.84037,6.63161 3.02517,10.17351 0.0962,1.843256 0.4068,4.089636 0.69028,4.991946 0.41945,1.33512 0.44822,2.29534 0.15451,5.15745 -0.4758,4.63654 -1.44319,6.65666 -3.71669,7.76121 -0.8905,0.43264 -1.77359,0.78661 -1.96243,0.78661 -0.59997,0 -0.372,-0.98477 0.5386,-2.32662 0.48507,-0.71478 0.87377,-1.55527 0.86377,-1.86775 -0.01,-0.31247 -0.2651,0.0272 -0.5669,0.75479 -0.4178,1.00729 -0.75013,1.32292 -1.39293,1.32292 -0.6863,0 -0.84381,-0.18147 -0.84204,-0.97014 10e-4,-0.53358 0.21481,-1.3776 0.47469,-1.8756 0.25988,-0.498 0.58455,-1.35185 0.72149,-1.89745 0.13693,-0.54559 0.62304,-1.54248 1.08024,-2.21531 l 0.83127,-1.22332 -0.8572,-2.52368 c -0.47145,-1.38802 -1.48362,-3.79367 -2.24925,-5.34589 -0.76563,-1.552216 -1.56679,-3.645296 -1.78036,-4.651266 -0.21357,-1.00598 -0.63161,-2.03098 -0.92898,-2.27777 -0.29736,-0.24679 -1.07821,-1.28903 -1.73521,-2.31609 -0.657,-1.02706 -1.32979,-1.86738 -1.49508,-1.86738 -0.44428,0 -1.03526,1.46781 -1.63882,4.07028 -0.29435,1.26921 -0.75469,2.73793 -1.02297,3.26383 -0.7414,1.45328 -1.92566,9.858836 -2.19571,15.584546 -0.23237,4.92678 -0.27367,5.13634 -1.19373,6.0564 -0.68349,0.68349 -1.47508,2.53273 -2.79879,6.5383 -1.66441,5.03652 -4.42636,11.02889 -5.34504,11.59666 -0.19483,0.12041 -0.99414,1.51585 -1.77626,3.10098 -0.78212,1.58514 -1.74005,3.22142 -2.12875,3.6362 -0.38869,0.41477 -1.13235,1.90583 -1.65257,3.31346 -1.04734,2.83389 -1.78035,3.58402 -2.84967,2.91622 -0.60308,-0.37663 -0.74701,-0.24387 -1.41233,1.30269 -0.40745,0.94714 -0.74081,2.0551 -0.74081,2.46215 0,1.61578 -2.2117,5.24861 -6.71063,11.02257 -1.49088,1.9134 -3.24996,4.42073 -3.90906,5.57183 -1.1904,2.07899 -2.14855,2.65866 -2.57173,1.55587 z"
       id="path21"
       inkscape:connector-curvature="0" />
  </g>
</svg>
